<?xml version="1.0" encoding="UTF-8"?>
<svg id="Layer_2" data-name="Layer 2" xmlns="http://www.w3.org/2000/svg" width="300" height="186" viewBox="0 0 300 186">
  <defs>
    <style>
      .cls-1 {
        fill: #fff5e3;
      }

      .cls-2 {
        fill: #ffe5c3;
      }
    </style>
  </defs>
  <g id="Layer_2-2" data-name="Layer 2">
    <g>
      <path class="cls-1" d="M150,183.5C68.6685,183.5,2.5,142.9023,2.5,93S68.6685,2.5,150,2.5s147.5,40.5977,147.5,90.5-66.1685,90.5-147.5,90.5Z"/>
      <path class="cls-2" d="M150,5c39.148,0,75.8806,9.4072,103.4313,26.4886,26.806,16.6197,41.5687,38.4648,41.5687,61.5114s-14.7627,44.8917-41.5687,61.5114c-27.5507,17.0814-64.2833,26.4886-103.4313,26.4886s-75.8806-9.4072-103.4313-26.4886C19.7627,137.8917,5,116.0466,5,93s14.7627-44.8917,41.5687-61.5114C74.1194,14.4072,110.852,5,150,5M150,0C67.1573,0,0,41.6375,0,93s67.1573,93,150,93,150-41.6375,150-93S232.8427,0,150,0h0Z"/>
    </g>
  </g>
</svg>