<?xml version="1.0" encoding="UTF-8"?>
<svg id="Layer_1" data-name="Layer 1" xmlns="http://www.w3.org/2000/svg" width="224" height="667" viewBox="0 0 224 667">
  <defs>
    <style>
      .cls-1 {
        fill: #fff;
      }
    </style>
  </defs>
  <g>
    <path class="cls-1" d="M112,223.5C50.5186,223.5.5,173.4814.5,112S50.5186.5,112,.5s111.5,50.0186,111.5,111.5-50.0186,111.5-111.5,111.5Z"/>
    <path d="M112,1c29.6492,0,57.5237,11.546,78.4889,32.5112,20.9651,20.9651,32.5111,48.8397,32.5111,78.4888s-11.546,57.5237-32.5111,78.4889c-20.9652,20.9651-48.8397,32.5111-78.4889,32.5111s-57.5237-11.546-78.4888-32.5111C12.546,169.5237,1,141.6492,1,112S12.546,54.4763,33.5112,33.5112C54.4763,12.546,82.3508,1,112,1M112,0C50.1441,0,0,50.1441,0,112s50.1441,112,112,112,112-50.1441,112-112S173.8559,0,112,0h0Z"/>
  </g>
  <g>
    <rect class="cls-1" x="3.5" y="221.5" width="217" height="445"/>
    <path d="M220,222v444H4V222h216M221,221H3v446h218V221h0Z"/>
  </g>
  <g>
    <path d="M33.5156,93.5776c0-3.2031.7959-5.6226,2.3857-7.2627,1.5894-1.6401,3.7363-2.46,6.4409-2.46,2.7021,0,4.8491.8198,6.4404,2.46,1.5898,1.6401,2.3857,4.0596,2.3857,7.2627,0,3.2012-.7959,5.6226-2.3857,7.2622-1.5913,1.6401-3.7383,2.46-6.4404,2.46-2.7046,0-4.8516-.8198-6.4409-2.46-1.5898-1.6396-2.3857-4.061-2.3857-7.2622ZM83.8496,93.5776c0-3.2031.793-5.6226,2.3848-7.2627,1.5898-1.6401,3.7383-2.46,6.4414-2.46s4.8496.8198,6.4414,2.46c1.5898,1.6401,2.3848,4.0596,2.3848,7.2627,0,3.2012-.7949,5.6226-2.3848,7.2622-1.5918,1.6401-3.7383,2.46-6.4414,2.46s-4.8516-.8198-6.4414-2.46c-1.5918-1.6396-2.3848-4.061-2.3848-7.2622Z"/>
    <path d="M20.3955,142.1885h10.377c1.1929,5.0757,3.459,9.4482,6.7988,13.1196,3.3394,3.6699,7.5142,6.501,12.5234,8.4927,5.0098,1.9912,10.6157,2.9868,16.8179,2.9868h21.4702c6.2793,0,11.9062-.9956,16.877-2.9868,4.9688-1.9917,9.125-4.8228,12.4629-8.4927,3.3398-3.6714,5.6074-8.0439,6.7988-13.1196h10.377c-2.5449,11.1665-7.8711,19.8149-15.9824,25.9463-8.1113,6.1294-18.2891,9.1953-30.5332,9.1953h-21.4702c-12.2461,0-22.4238-3.0659-30.5342-9.1953-8.1108-6.1313-13.437-14.7798-15.9829-25.9463Z"/>
  </g>
</svg>