<?xml version="1.0" encoding="UTF-8"?>
<svg id="Layer_1" xmlns="http://www.w3.org/2000/svg" version="1.1" viewBox="0 0 128 128">
  <!-- Generator: Adobe Illustrator 29.3.1, SVG Export Plug-In . SVG Version: 2.1.0 Build 151)  -->
  <defs>
    <style>
      .st0 {
        fill: #fe5757;
      }

      .st1 {
        fill: #fee7b0;
      }

      .st2 {
        fill: #e4c06b;
      }

      .st3 {
        fill: #dc3838;
      }

      .st4 {
        fill: #f3d99e;
      }

      .st5 {
        fill: #fefefe;
      }

      .st6 {
        fill: #fcda8a;
      }

      .st7 {
        fill: #fed168;
      }

      .st8 {
        fill: #f0ad3d;
      }

      .st9 {
        fill: #fee8b7;
      }
    </style>
  </defs>
  <path class="st0" d="M127.8,20.1c0,29.2.1,58.5,0,87.7,0,11-8.9,19.9-19.9,19.9-29.3,0-58.5,0-87.8,0S.3,118.8.3,107.8V20.2C.3,9.2,9.2.2,20.3.2h87.6c11,0,19.9,8.9,20,19.9Z"/>
  <polygon class="st5" points="127.7 .2 128 .2 128 127.9 .3 127.9 .3 127.7 127.7 127.7 127.7 .2"/>
  <path class="st3" d="M11.5,62.9c-1.3-.8-2.7-1.9-3.8-2.9s-1-.8-.8-1.1l12.7-7-7.1-13,14.5-2.2-1.8-14.8,14.5,3,3.3-14.3,12.3,8.1c.9-.1,7.7-11.8,8.4-12s7.3,10.9,8.7,12l12.3-8.1,3.3,14.3,14.5-3-1.8,14.8,14.5,2.2-4.6,8.5h-.6c-2.5-1.7-5.4-3.3-8.6-3.1-.8-.1-1.3-.6-1.6-1.3-2.5-6.8-8.4-9.6-15.3-7.2-.8.2-1.6.2-2.3-.4-3.1-2.7-5.6-4.5-9.8-2.6s-3.7,1.7-5.5,2.8l-1.3-.4c-5-3.3-8.4-2-13.2.7-2.6,2-4.2,3.1-7.4,1.6-5.4-.9-9,3.3-12,7.2-7.4-.4-11.5,2.4-12.6,9.8-.7,1.7-2.2,2.8-4.5,3.1-2.2.9-4.1,2.5-4.1,5l-.6.4Z"/>
  <path class="st3" d="M116.3,76.7c.8.6,1.5,1.5,2.1,2.3s1.1,1.1.7,1.4l-13.7,4.9,4.6,14.1-14.8-.8-.8,14.8-13.6-5.6-6.2,13.2-10.5-10.2-10.4,10.2c-.4,0-.5-.3-.7-.6-2-3.6-3.2-8.5-5.2-12.1s-.2-.5-.5-.6l-13.6,5.6-.8-14.8-14.8.8,2.5-8.2c.7-.1,1.4-.2,2.1,0,9.3,1.5,17.8,2.7,27.3,3,14.1.5,27.6.2,41-4.5,9-3.1,15.6-7.4,23.5-12.4.5-.3,1.1-.5,1.7-.6Z"/>
  <g>
    <path class="st8" d="M110.9,47.4c.4.4,1.8,2.8,1.9,3.3s0,1.8.4,2.2,1.3.6,1.8.9c6.7,4.3,15.8,10.2,7.1,18.2-1.5,1.4-4.2,3.5-5.9,4.7-14.1,10.3-29.6,17-47.3,17.9-15.5.8-33.1,0-48.3-3.3-3.7-.8-8.8-2.1-12.4-3.2s-3.6-1-4.1-2.1c-1.1-2.4.1-10,1.7-12.2s3.6-3,4-3.6c.7-1.2,1.2-5.5,1.6-7.2s0-1,.2-1.7c.7-2.1,2.3-3.3,4.3-4.2s3-.7,3.5-1.3c.8-.9,1.2-3.9,1.7-5.2,2.2-5.8,6.1-6.3,11.9-6.4,2.9-4,6.4-7.9,11.9-7.3s2.8,1,4.1.8,2.8-1.9,3.5-2.3c2.1-1.2,5.8-2.9,8.2-2.7s4.3,1.9,6.4,2.5c1.3-.9,2.6-1.6,4.1-2.3,2.8-1.2,4.9-2,7.9-.7s3.8,3.1,4.4,3.2c1.3.2,4-.9,5.6-1,4.1,0,6.9,1.4,9.4,4.6s1.9,4.1,2.6,4.6,2,.2,3,.3c1.7.3,5.6,2.3,6.8,3.5Z"/>
    <g>
      <path class="st1" d="M114,75.4c0-.8-.4-1.5-.7-2.2-.7-1.3-2.7-3.4-3.1-4.4-.4,0-.6-.4-.6-1.1-.5-.1-.8-.3-.9-.7-.2,0-2.8-2.6-3.3-3.1-.6.4-.7.2-.5-.5-1.1-1-2.2-2.3-3.6-3.1l-.2-.3c.3-1.3.5-2.4-1-1.1h-.6c0-.1-4.1-2.4-4.1-2.4-.3-.3-.4-.8-.3-1.5-.7.2-1.2.3-1.7.3l-3.6-1.5-.4-.4c1.3-3.2.1-5.5-1-.8l-.6.2-4.3-1c-.2,0-.4-.2-.4-.4l.5-2.5c.3-3.7-1.4.8-1.6,2l-.6.2-4.8-.8-.5-.3c.2-3.1-1.9-5-1-.2l-.5.3-3.8-.3-.5-.4c.3-4.2-1.2-3.8-1.3,0l-.5.3-5.6.3c-.2,0-.4,0-.5-.2-.2-3.5-2.3-4.2-1.1,0l-.4.4-4.8,1h-.6c-.3-4.1-1.5-2.2-1.2.4l-.5.3-4.6,1.8h-.6c-2.8-5.1-3.5-3.2-.9.7l-.3.5-3.6,1.5c0,.6-.4.6-.8.2-.8-1.9-3.9-3.1-1.6-.2.4.7.4,1.3-.1,1.6l-2.8,1.5h-.5c0,.1-3-2.3-3-2.3-3.8-2.1.9,2.4,2.1,2.8v.6c-.8,1.5-2.9,2.2-3.9,3.6l-.5.4c-1.3-1.5-5.5-2.1-2.1,0,.7.5.8.9.6,1.4-.8,1.2-1.8,2.2-2.7,3.3s-.6.2-.6.3l-.5.2c-5-3.2-6.3-1-.5.5l.2.5c-.9,1.1-1.7,2.4-2.5,3.6l-.3.4c-2.1-.6-3.9-.4-1.2,1.3v.6s-1.5,3.6-1.5,3.6l-.2.3c-1.9-.9-4.3-.9-1.1.9v.6c-.4,2-1.6,3.9-1.5,6.1-3.3-.8-7-1.4-10.2-2.4s-2.1-.7-2.2-1.6c-.5-2.5.5-8,2.3-9.9s2.8-1.9,3.4-2.7c.9-1.5,1.4-6.6,1.8-8.6.9-4.2,4.7-4,8-5.4,1.5-4.5,1.4-9.8,7.1-10.9s2.4,0,3.8,0c2.5,0,2-1,3.2-2.4,1.9-2.2,5-5.3,8-5.2s5.3,1.2,6.3.9,1.1-1,1.7-1.4c2.7-1.8,6.7-4.1,10.1-3.6s4.4,3.1,6.8,2,1-.9,1.6-1.2c2.6-1.5,6.1-3,8.9-1.5s3.5,3.3,4.5,3.4,3-.8,4.1-1c3.3-.5,6.3-.2,8.8,2.4s3,5.7,3.9,6.3,4,.6,5.5,1.1,4.3,2.3,5,3.9.4,2.1.7,3.1c.6,1.5,4.4,3.2,6,4.2s6.9,5.2,6.5,7.9-.5,1.6-.7,2.1c-1.4,2.9-6.5,5.9-9.1,7.8Z"/>
      <g>
        <path class="st4" d="M41.1,58.1c-.1-.2,0-.9-.3-1.3-.3-.6-1.7-1.7-.4-2.4s2.3,1.3,2.9,2.1.4,0,.4,0c.3.5.8,1.9,1.3,2.4,0,1.1-1.2,1.4-2,1s-1.7-1.8-1.8-1.9Z"/>
        <path class="st4" d="M83.4,51.7c-.2.8-.4,2.1-1.6,1.7s-.6-1.7-.4-2.5.9-3.5,1.4-3.8c2.3-1.5.9,3.7.7,4.6Z"/>
        <path class="st2" d="M21.2,80.3c.9.4,3.3,1,2.7,2.3s-3.1,0-4-.5-2.5-1.1-1.9-2.3,2.3.1,3.2.5Z"/>
        <path class="st4" d="M32.9,64.2c2.1,2.7.4,3.6-2,1.8s-.5-.7-.9-1-2.4-1-1-2.1,2.7,1.2,4,1.3Z"/>
        <path class="st2" d="M87.7,52.7c.1-.4.9-2.8,1-3,.6-.7,1.8-.2,1.8.8s-.6,2.8-.7,3.2-.9,1.9-1,1.9c-.3.2-1,.2-1.3,0-.5-.4,0-2.3.3-2.9Z"/>
        <path class="st2" d="M38.3,59.6c.3,1.3-.5,1.5-1.5,1s-3.4-2.5-3.7-2.8c-.6-.8-.2-1.8.7-1.7s4.4,3.1,4.5,3.5Z"/>
        <path class="st2" d="M76.5,50.2c0,.7.2,2.6-.9,2.6s-1-2-1.1-2.8-.3-3-.2-3.1c.2-.6,1.3-.6,1.6-.2s.6,2.8.6,3.6Z"/>
        <path class="st4" d="M55.9,51.2c.7,3.4-1.8,4.3-2.3.8s-.3-4.5,1.5-3.4.2,2,.8,2.7Z"/>
        <path class="st2" d="M49,53.8c.2.6.4,1.6-.3,1.9-.8.4-1.1,0-1.5-.6s-1.7-3.1-1.7-3.2c-.4-1.3.3-2.2,1.5-1.2s1.9,3,2,3.2Z"/>
        <path class="st4" d="M70.7,49.7c-.2,2.4-2.3,2.5-2.3,0s.2-5,1.9-3.6.4,2.8.4,3.6Z"/>
        <path class="st2" d="M60.7,50.2c0-.3-.5-2.8-.5-2.9,0-.9,1.3-1.2,1.8-.5s.6,2.4.7,3.1.6,1.8,0,2.2c-1.5.6-1.8-.8-2.1-1.9Z"/>
        <path class="st2" d="M27.6,69.6c-.2.3-.2.6-.8,1.3-.5,0-.9-.1-1.3-.3-.7-.3-3-1.2-3.1-1.7-.6-2.7,4.5-.1,5.3.8Z"/>
        <path class="st7" d="M58.6,36c2.8-.1,5,2.6,5.9,4.9s1.3,3.3-.8,3.6-5.9.5-8.6.8-2.9,1.3-2.7-1.4,3.4-7.9,6.3-8Z"/>
        <path class="st7" d="M90.5,39c1.9-.3,4.5,1.2,4.8,3.2.5,2.8-.1,8-4,6.6s-6-2.7-6.8-3.4-.5-.6-.6-1c-.4-2.2,4.7-5.1,6.5-5.4Z"/>
        <path class="st7" d="M111.1,59.4c2.4-.4,9.7.2,10,3.4s-.8,3.6-1.4,4.7-1.5,2.7-3.1,1.8l-6.6-7.2c-.8-1.3-.5-2.4,1.1-2.7Z"/>
        <path class="st7" d="M75.9,35.5c2.2-.3,3.4,1.2,4.3,2.9s2.6,5.7-1.1,5.7-4.9-.5-6.6-.8-2.7-.6-2.9-1c-.5-1.1,1.5-3.5,2.3-4.3s2.6-2.3,3.9-2.5Z"/>
        <path class="st7" d="M104.8,48.5c4.1-.3,5.2,3,3.9,6.5-2.1,5.9-5,2.1-7.8-.4s-2-1-2.2-1.9c-.4-2.5,4.1-4,6.1-4.1Z"/>
        <path class="st7" d="M42,40c2.4-.5,4.5,2.5,5.5,4.4s1.4,2.7.4,3.6-7.2,2.2-8.2,1.9-.9-1-.9-1.6c-.2-1.9,1.1-7.7,3.2-8.2Z"/>
        <path class="st7" d="M10.1,84.8c-.5-.5-2.3-6.8-2.4-7.7-.1-4.2,8.3,0,8.4,2.1s-2,3.5-2.7,4.2-2.6,2.2-3.4,1.4Z"/>
        <path class="st7" d="M26.5,48.5c2.4-.7,6.3,3.4,5.9,5.4s-5.8,2.9-7,3.7c-1.2-.2-1-4.2-.9-5.2s.9-3.6,1.9-3.9Z"/>
        <path class="st7" d="M16.8,60.9c1.9-.4,4.1.8,5.5,2s1.7,1.7.5,3.1c-1,.3-4.6,4.3-5.1,4.3s-1-.7-1.2-1.1c-.7-1.6-2.3-7.7.2-8.2Z"/>
      </g>
    </g>
    <g>
      <path class="st6" d="M68.4,49.7c.4.3.7.7,1,1.3.4-.5.9-1,1.3-1.3.3-.8,3.5-.6,3.8.3l.5.2c0,2,1.1,3.4,1,.4l.5-.3c0-.7,4.4,0,4.6.2s.2.3.3.6l.5.3c-.6,1.7.5,2.7,1,.6l.6-.2.4-.4c.8,0,3.8.7,3.9,1.5l.4.3c-.9,2.3-.2,3.4,1,.8h.6c.6-.7,3.5.6,3.6,1.5l.2.5c-3.6,3.5-2.8,5.4.9.6.4-.3.6-.2.9.2.1-.2.3-.4.4-.3s3.3,1.8,3.6,2v.6c.5.1.6.3.4.7-.5.1-3.2,4.3-1.5,3.1l2.3-2.3h.6c1.2-.4,3.5,1.9,3.6,3.1l-.2.5c-3.3,1.4-5.7,7.9-.6,1.7.3-.8.8-1.3,1.3-1.7l.5-.2,2.9,2.7v.6c.2.2.4.4.2.6-3,3.1-3.7,4.3-2,3.6l2.6-2.7c.2-.2.5,0,.7.2l.6.2c.8.9,3.8,4.8,3.6,5.9l-.4.6c-14.6,10.5-28.3,16.5-46.5,17.1s-32.4-.5-49.1-4.3c-.6-.4-.7-1.1-.3-2.1.2-1.2.9-3.5,1.8-4l.4-.4c2.7,1.6,5,.6.9-.8v-.6c-.8-.6.5-3.5,1.4-3.6l.2-.3c2.2.6,5.6,1.1,1.4-1.3v-.7c0-1.5,1.1-3.1,2.5-3.6-.3-.6,0-1.4.8-1.3.4-1,1.7-2.5,2.6-3.4l.8-.2.6-.2c1.6,1,2.7,1.1,1.3-1l.2-.6c-.1-.2-.2-.4-.2-.6s3.1-2.8,3.4-3h.6c.7,0,1.2-.4,1.5-1-.3-.8,2.2-2.1,2.8-1.5h.6c1.2,1.6,2.1,2,2.8,1-.8-.9-1.1-1.7-.8-2.6,0-.9,2.9-2.1,3.6-1.5.5.2.9.2,1.4.2,0-.6.2-1.1.4-1.4-.4-.6,3.8-2.1,4.1-2.1s.4.2.5.3l.6.3c.6,2.6,1.6,1.3,1.3-.6l.4-.4c0-.2,0-.5.2-.6.4-.1,4-.9,4.2-.9s.3.2.5.4l.6.2c.2,1.8,1.8,1.9,1-.1l.4-.4c0-.2,0-.5.2-.5.5,0,4.8-.3,5-.2s.3.3.4.5Z"/>
      <g>
        <path class="st9" d="M62.7,55.9c5.1-.4,14.5.1,18.6,3.4s2.7,2.7,1,3.5-6-1.4-7.5-1.8c-9.8-2.5-15.7-1.3-24.3,3.8s-5.9,4.9-8.6,3.6-.8-3,.6-4.2c5-4.2,13.7-7.8,20.2-8.3Z"/>
        <path class="st9" d="M73.4,66.8c1,0,2-.3,2.7.7s.6,1.7-.6,2c-3,.8-7.6.7-10.9,1.1s-8.4,1.5-12.5,2.5c-.9,0-1.7-1-1.1-1.8s5.1-1.8,6.3-2.1c4.8-1.1,11.1-2,16-2.3Z"/>
        <path class="st9" d="M33.4,71.9c1.2-.3,2.1.3,2.1,1.6s-2.2,6.3-2.9,7.3c-1,1.4-2.8,2.2-2.9-.1s1.6-8.3,3.8-8.7Z"/>
        <path class="st9" d="M90.2,64.8c2.1-.6,6.6,4.2,7.1,6.1s-.8,2.5-2.4,1.4-3.9-3.7-4.5-4.4-1.5-2.7-.2-3Z"/>
        <path class="st4" d="M24.3,74.4c.6.8,1.7.7,2.3,1.6s-.3,1.5-1.1,1.4-2.4-.6-2.7-.8-1.6-1.2-1.7-1.3c-1-2,2.2-1.4,3.2-1Z"/>
        <path class="st4" d="M95.4,56.6s-.5,0-.8.4c-.8.9-2.9,4.3-4,2.2s2.1-3.3,2.7-3.8,1.3-1.2,2.1-.7.2,1.7,0,1.9Z"/>
        <path class="st4" d="M104.8,63.4c.2.2.4.4.5.5,0,1.1-1.5,2.9-2.3,3.7s-2.4,2-2.6.2,1.3-2.2,1.7-2.6c.7-.8,1.5-1.8,2.7-1.8Z"/>
        <path class="st2" d="M101.2,60.4c-.5.7-2.2,2-2.8,2.9-2.9,0-.1-2.8.8-3.8s.2-.6.2-.6c1.9-2,3-.3,1.8,1.5Z"/>
        <path class="st2" d="M110.2,68.8c-1.3.3-3.3,4.6-4.6,2.9s2.7-3.5,3.1-4.7c.3.1.9-.2,1.3.4s.1,1.1.2,1.4Z"/>
        <path class="st4" d="M41.4,88.2c.9-.6,2.2.7,1.3,1.4s-2-.9-1.3-1.4Z"/>
      </g>
    </g>
  </g>
</svg>